# xmcd
#
# Track frame offsets: 
#        150
#        26690
#        47905
#        76688
#        108542
#        135441
#        166561
#        187340
#        203522
#        225294
#        250698
#        285287
#        312067
#        339426
#
# Disc length: 4783 seconds
#
# Revision: 0
# Processed by: cddbd v1.5.2PL0 Copyright (c) Steve Scherf et al.
# Submitted via: ExactAudioCopy v0.95a5
#
DISCID=a712ad0e
DTITLE=Tryrone Starks - Tyrone Starks Band
DYEAR=2003
DGENRE=Blues
TTITLE0=Born Under a Bad Sign
TTITLE1=Across The Line
TTITLE2=Thrill is Gone
TTITLE3=Room With A View
TTITLE4=Find Me A Lover
TTITLE5=Fever
TTITLE6=Everday
TTITLE7=Just A Little Bit
TTITLE8=Dock Of The Bay
TTITLE9=Tippin
TTITLE10=Ain't No Sunshine
TTITLE11=Steppin Out
TTITLE12=Change My Mind
TTITLE13=Chicken Shack
EXTD=
EXTT0=
EXTT1=
EXTT2=
EXTT3=
EXTT4=
EXTT5=
EXTT6=
EXTT7=
EXTT8=
EXTT9=
EXTT10=
EXTT11=
EXTT12=
EXTT13=
PLAYORDER=
